HIERARCHY
ROOT Hips
{
	OFFSET 0.000000 0.000000 0.000000
	CHANNELS 6 Xposition Yposition Zposition Xrotation Yrotation Zrotation
	JOINT LeftUpLeg_virtual
	{
		OFFSET 0.000000 0.000000 0.000000
		CHANNELS 3 Xrotation Yrotation Zrotation
		JOINT LeftUpLeg
		{
			OFFSET 15.427100 -6.655098 0.678600
			CHANNELS 3 Xrotation Yrotation Zrotation
			JOINT LeftLeg
			{
				OFFSET 4.081073 -39.591068 13.024000
				CHANNELS 3 Xrotation Yrotation Zrotation
				JOINT LeftFoot
				{
					OFFSET -4.081074 -37.707932 -15.979700
					CHANNELS 3 Xrotation Yrotation Zrotation
					JOINT LeftToeBase
					{
						OFFSET 5.346399 -15.068900 20.645000
						CHANNELS 3 Xrotation Yrotation Zrotation
						JOINT LeftToe_End
						{
							OFFSET 2.754700 0.931300 11.300900
							CHANNELS 3 Xrotation Yrotation Zrotation
							End Site
							{
								OFFSET 0 0 0
							}
						}
					}
				}
			}
		}
	}
	JOINT RightUpLeg_virtual
	{
		OFFSET 0.000000 0.000000 0.000000
		CHANNELS 3 Xrotation Yrotation Zrotation
		JOINT RightUpLeg
		{
			OFFSET -15.569500 -6.655098 0.678600
			CHANNELS 3 Xrotation Yrotation Zrotation
			JOINT RightLeg
			{
				OFFSET -4.081825 -39.591045 13.023800
				CHANNELS 3 Xrotation Yrotation Zrotation
				JOINT RightFoot
				{
					OFFSET 4.081824 -37.707954 -15.979600
					CHANNELS 3 Xrotation Yrotation Zrotation
					JOINT RightToeBase
					{
						OFFSET -5.346400 -15.068900 20.645000
						CHANNELS 3 Xrotation Yrotation Zrotation
						JOINT RightToe_End
						{
							OFFSET -2.754700 0.931300 11.300900
							CHANNELS 3 Xrotation Yrotation Zrotation
							End Site
							{
								OFFSET 0 0 0
							}
						}
					}
				}
			}
		}
	}
	JOINT Spine_virtual
	{
		OFFSET 0.000000 0.000000 0.000000
		CHANNELS 3 Xrotation Yrotation Zrotation
		JOINT Spine
		{
			OFFSET -0.279200 12.230698 -2.892100
			CHANNELS 3 Xrotation Yrotation Zrotation
			JOINT Spine1
			{
				OFFSET -0.232667 10.192268 -1.242267
				CHANNELS 3 Xrotation Yrotation Zrotation
				JOINT Spine1_split
				{
					OFFSET -0.232667 10.192268 -1.242267
					CHANNELS 3 Xrotation Yrotation Zrotation
					JOINT Spine2
					{
						OFFSET -0.232667 10.192268 -1.242267
						CHANNELS 3 Xrotation Yrotation Zrotation
						JOINT Neck_virtual
						{
							OFFSET 0.000000 0.000000 0.000000
							CHANNELS 3 Xrotation Yrotation Zrotation
							JOINT Neck
							{
								OFFSET -0.418800 17.814194 8.416900
								CHANNELS 3 Xrotation Yrotation Zrotation
								JOINT Head
								{
									OFFSET 0.000000 7.031097 3.806800
									CHANNELS 3 Xrotation Yrotation Zrotation
									JOINT HeadTop_End
									{
										OFFSET 0.000000 24.646606 12.978600
										CHANNELS 3 Xrotation Yrotation Zrotation
										End Site
										{
											OFFSET 0 0 0
										}
									}
								}
							}
						}
						JOINT LeftShoulder_virtual
						{
							OFFSET 0.000000 0.000000 0.000000
							CHANNELS 3 Xrotation Yrotation Zrotation
							JOINT LeftShoulder
							{
								OFFSET 8.476499 7.247704 -3.868750
								CHANNELS 3 Xrotation Yrotation Zrotation
								JOINT LeftShoulder_split
								{
									OFFSET 8.476499 7.247704 -3.868750
									CHANNELS 3 Xrotation Yrotation Zrotation
									JOINT LeftArm
									{
										OFFSET 9.308998 -2.777710 0.208600
										CHANNELS 3 Xrotation Yrotation Zrotation
										JOINT LeftForeArm
										{
											OFFSET 29.972298 0.000000 0.000000
											CHANNELS 3 Xrotation Yrotation Zrotation
											JOINT LeftHand
											{
												OFFSET 26.026505 0.000000 0.000000
												CHANNELS 3 Xrotation Yrotation Zrotation
												End Site
												{
													OFFSET 0 0 0
												}
											}
										}
									}
								}
							}
						}
						JOINT RightShoulder_virtual
						{
							OFFSET 0.000000 0.000000 0.000000
							CHANNELS 3 Xrotation Yrotation Zrotation
							JOINT RightShoulder
							{
								OFFSET -7.570500 7.247704 -3.868750
								CHANNELS 3 Xrotation Yrotation Zrotation
								JOINT RightShoulder_split
								{
									OFFSET -7.570500 7.247704 -3.868750
									CHANNELS 3 Xrotation Yrotation Zrotation
									JOINT RightArm
									{
										OFFSET -9.308998 -2.777710 0.208500
										CHANNELS 3 Xrotation Yrotation Zrotation
										JOINT RightForeArm
										{
											OFFSET -29.972300 0.000000 0.000000
											CHANNELS 3 Xrotation Yrotation Zrotation
											JOINT RightHand
											{
												OFFSET -26.026505 0.000000 0.000000
												CHANNELS 3 Xrotation Yrotation Zrotation
												End Site
												{
													OFFSET 0 0 0
												}
											}
										}
									}
								}
							}
						}
					}
				}
			}
		}
	}
}
MOTION
Frames: 7
Frame Time: 0.03333333
-0.071201 88.294212 -2.473705 0.000000 0.000000 0.000000 -1.857292 -1.017978 -0.490094 -10.435913 3.205259 12.432506 24.780761 3.579423 1.371406 -12.662074 3.520452 -13.354585 2.182634 0.188624 -1.847699 0.000000 0.000000 0.000000 -1.647372 -0.846096 -0.354449 -14.190068 2.914250 -6.429205 29.568326 -0.405310 -0.422329 -11.081043 -1.207069 7.965505 4.053689 0.926072 1.492026 0.000000 0.000000 0.000000 -1.751197 -2.144057 -0.549120 0.618992 -0.598472 0.288584 -1.266497 -0.297050 0.611666 1.052984 0.252583 0.018589 0.000000 0.000000 0.000000 -1.589203 0.023381 0.621248 -0.656700 0.466770 -0.867240 4.340449 -1.929950 2.213192 0.000000 0.000000 0.000000 -1.715400 0.205686 0.312649 1.492302 -10.378186 -10.311339 -2.844876 0.472935 -1.772465 20.660970 -21.542003 -65.621486 -1.080787 -19.749063 0.884600 0.000000 0.000000 0.000000 -1.167484 0.167598 0.537169 1.565265 5.381979 10.705371 -0.158636 3.251779 -2.201664 5.987783 23.432210 66.407976 0.635263 16.159714 0.705456 0.000000 0.000000 0.000000 
0.089621 88.435402 -2.380417 0.000000 0.000000 0.000000 -1.816750 -0.973254 -0.490422 -10.429398 3.030164 12.410234 24.553661 3.776845 1.324936 -12.491393 3.586012 -13.066535 2.031151 0.218384 -1.820923 0.000000 0.000000 0.000000 -1.580925 -0.905604 -0.370256 -13.868816 2.969771 -6.436479 29.284289 -0.451335 -0.548586 -10.949088 -1.289577 7.533515 3.563100 0.875252 1.620814 0.000000 0.000000 0.000000 -1.576768 -2.252742 -0.620501 0.486680 -0.570700 0.357559 -1.218929 -0.306895 0.603388 1.172524 0.399783 0.093528 0.000000 0.000000 0.000000 -1.600362 -0.000422 0.624932 -0.666506 0.536794 -0.856158 4.278380 -1.994148 2.144311 0.000000 0.000000 0.000000 -1.703064 0.212216 0.308710 1.488923 -10.451546 -10.462973 -2.840248 0.503816 -1.761581 20.655482 -21.647322 -65.682562 -1.076994 -19.792987 0.773928 0.000000 0.000000 0.000000 -1.143364 0.160589 0.521588 1.587217 5.558564 10.792021 -0.071682 3.391858 -2.240482 6.144347 23.523250 66.277246 0.678656 16.095658 0.715904 0.000000 0.000000 0.000000 
0.225461 88.568878 -2.295177 0.000000 0.000000 0.000000 -1.845848 -1.043317 -0.524266 -10.446509 2.991056 12.398798 24.289944 4.186672 1.364173 -12.176593 3.533989 -12.635356 1.928562 0.270409 -1.692566 0.000000 0.000000 0.000000 -1.518869 -0.894395 -0.453981 -13.521763 3.020019 -6.406275 29.145350 -0.500491 -0.750496 -11.417234 -1.331833 6.744130 3.473103 0.880347 1.623088 0.000000 0.000000 0.000000 -1.389899 -2.434856 -0.733646 0.452302 -0.517670 0.494615 -1.136958 -0.307417 0.572048 1.220006 0.425603 0.087772 0.000000 0.000000 0.000000 -1.578397 -0.023917 0.600076 -0.646961 0.660135 -0.918071 4.035737 -2.082332 2.142981 0.000000 0.000000 0.000000 -1.657929 0.208924 0.275805 1.475494 -10.588088 -10.617414 -2.862658 0.740367 -1.713970 20.564315 -21.660360 -65.742524 -1.030828 -19.960967 0.663661 0.000000 0.000000 0.000000 -1.096095 0.142174 0.477992 1.639176 5.732497 10.868131 0.053718 3.532782 -2.290424 6.418344 23.815481 65.928394 0.741103 16.205191 0.704928 0.000000 0.000000 0.000000 
0.353810 88.598282 -2.280483 0.000000 0.000000 0.000000 -1.904034 -1.257182 -0.565741 -10.449537 3.131488 12.325268 24.087661 4.748748 1.501790 -11.904060 3.406845 -12.164049 1.853100 0.343496 -1.474831 0.000000 0.000000 0.000000 -1.433311 -0.865409 -0.527795 -13.423178 3.028993 -6.450806 29.293937 -0.490198 -0.887872 -12.017405 -1.347974 5.958344 3.548213 0.913507 1.500836 0.000000 0.000000 0.000000 -1.226305 -2.686815 -0.823627 0.521082 -0.459458 0.635926 -1.018274 -0.290554 0.525888 1.140593 0.354727 -0.027598 0.000000 0.000000 0.000000 -1.509850 -0.034968 0.558840 -0.614573 0.807489 -1.027950 3.604004 -2.199476 2.232795 0.000000 0.000000 0.000000 -1.583071 0.207144 0.227342 1.449449 -10.762724 -10.744799 -2.957085 1.034036 -1.638681 20.443615 -21.669059 -65.671552 -0.961670 -20.210325 0.541242 0.000000 0.000000 0.000000 -1.028598 0.121681 0.415347 1.716326 5.891023 10.902515 0.222265 3.643302 -2.310711 6.699050 24.289785 65.409812 0.805019 16.453460 0.682217 0.000000 0.000000 0.000000 
0.503967 88.526917 -2.318356 0.000000 0.000000 0.000000 -1.893675 -1.605698 -0.590934 -10.544192 3.385675 12.160429 24.059553 5.392233 1.734171 -11.843364 3.237641 -11.770415 1.775623 0.418100 -1.187163 0.000000 0.000000 0.000000 -1.290719 -0.921256 -0.569776 -13.686663 2.961366 -6.585773 29.464965 -0.243688 -0.948561 -12.262623 -1.359210 5.773786 2.859143 0.915925 1.245402 0.000000 0.000000 0.000000 -1.065068 -2.961432 -0.891955 0.677075 -0.414548 0.714861 -0.853002 -0.259434 0.476610 1.011179 0.224601 -0.106871 0.000000 0.000000 0.000000 -1.385239 -0.023906 0.513809 -0.596301 0.931337 -1.140312 2.980370 -2.340433 2.448797 0.000000 0.000000 0.000000 -1.467052 0.221616 0.181710 1.409919 -10.980282 -10.821011 -3.023990 1.225659 -1.741690 20.308818 -21.759791 -65.404737 -0.879141 -20.559038 0.406733 0.000000 0.000000 0.000000 -0.933263 0.112025 0.354222 1.808934 6.054979 10.896938 0.394892 3.704021 -2.340828 6.886704 24.923359 64.796659 0.840364 16.785130 0.652518 0.000000 0.000000 0.000000 
0.650622 88.381393 -2.370594 0.000000 0.000000 0.000000 -1.742774 -2.002078 -0.612255 -10.822989 3.637826 11.970302 24.317032 6.027004 2.037333 -12.040059 3.045775 -11.597580 1.620776 0.468548 -0.836637 0.000000 0.000000 0.000000 -1.033172 -1.141198 -0.604423 -14.275805 2.892410 -6.696981 29.426487 0.220811 -0.963388 -12.081641 -1.409974 6.261992 1.542451 0.872462 0.934875 0.000000 0.000000 0.000000 -0.873117 -3.270786 -1.007940 0.884449 -0.394544 0.703678 -0.647338 -0.213780 0.429383 0.920997 0.089059 -0.045753 0.000000 0.000000 0.000000 -1.194504 0.015085 0.471903 -0.614171 1.004896 -1.220624 2.170982 -2.534568 2.809088 0.000000 0.000000 0.000000 -1.312473 0.259397 0.148870 1.357444 -11.256547 -10.828421 -2.959731 1.258613 -1.970462 20.117643 -21.905675 -64.936869 -0.789680 -20.980473 0.267599 0.000000 0.000000 0.000000 -0.800162 0.125271 0.304470 1.898795 6.281067 10.852714 0.558519 3.749149 -2.357619 6.924696 25.701385 64.156643 0.833007 17.132640 0.625492 0.000000 0.000000 0.000000 
0.783858 88.235367 -2.533928 0.000000 0.000000 0.000000 -1.440783 -2.551151 -0.705288 -11.289580 3.760606 11.878408 24.937383 6.644256 2.402257 -12.462937 2.954937 -11.714732 1.416423 0.473913 -0.474151 0.000000 0.000000 0.000000 -0.654650 -1.590762 -0.699829 -15.090924 2.829383 -6.655206 29.097876 0.693439 -0.930657 -11.584518 -1.557254 6.919360 0.505507 0.800966 0.736587 0.000000 0.000000 0.000000 -0.579077 -3.634156 -1.211280 1.112410 -0.382247 0.586072 -0.394257 -0.155954 0.384405 0.918440 0.042088 0.052831 0.000000 0.000000 0.000000 -0.932408 0.075262 0.427231 -0.680797 0.997134 -1.236933 1.217588 -2.814490 3.343882 0.000000 0.000000 0.000000 -1.109922 0.312327 0.121872 1.298461 -11.619847 -10.762874 -2.716504 1.144752 -2.164890 19.673773 -21.982347 -64.348783 -0.666395 -21.433065 0.155012 0.000000 0.000000 0.000000 -0.617550 0.160627 0.267665 1.980137 6.607803 10.799980 0.688559 3.748643 -2.334252 6.793228 26.614385 63.561358 0.785258 17.449824 0.595157 0.000000 0.000000 0.000000 
